<?xml version="1.0" encoding="UTF-8"?>
<!DOCTYPE svg PUBLIC "-//W3C//DTD SVG 1.1//EN" "http://www.w3.org/Graphics/SVG/1.1/DTD/svg11.dtd">
<!-- Creator: CorelDRAW -->
<svg xmlns="http://www.w3.org/2000/svg" xml:space="preserve" width="40mm" height="40mm" version="1.1" style="shape-rendering:geometricPrecision; text-rendering:geometricPrecision; image-rendering:optimizeQuality; fill-rule:evenodd; clip-rule:evenodd"
viewBox="0 0 115.7 115.7"
 xmlns:xlink="http://www.w3.org/1999/xlink"
 xmlns:xodm="http://www.corel.com/coreldraw/odm/2003">
 <defs>
  <style type="text/css">
   <![CDATA[
    .fil3 {fill:none}
    .fil4 {fill:none;fill-rule:nonzero}
    .fil0 {fill:red;fill-rule:nonzero}
    .fil1 {fill:url(#id3)}
    .fil2 {fill:url(#id4)}
   ]]>
  </style>
   <clipPath id="id0" style="clip-rule:nonzero">
    <path d="M90.29 57.85c0,-9.99 -3.14,-18.47 -9.42,-25.4 -6.28,-6.93 -13.95,-10.38 -23.03,-10.38 -9,0 -16.68,3.45 -22.99,10.38 -6.31,6.93 -9.45,15.41 -9.45,25.4 0,9.99 3.14,18.47 9.45,25.4 6.31,6.93 13.99,10.38 22.99,10.38 9,0 16.67,-3.45 22.99,-10.38 6.32,-6.93 9.45,-15.41 9.45,-25.4zm-30.89 9.9l0 -13.2c3.02,0 4.52,-1.14 4.52,-3.44 0,-2.1 -1.16,-3.15 -3.48,-3.15 -2.35,0 -3.53,1.45 -3.53,4.32l0 32.85 -14.93 0 0 -31.3c0,-3.24 0.33,-5.89 0.98,-7.97 0.64,-2.07 1.76,-4 3.33,-5.79 1.77,-1.99 3.98,-3.56 6.64,-4.7 2.65,-1.16 5.39,-1.73 8.21,-1.73 5.11,0 9.41,1.72 12.88,5.15 3.48,3.43 5.22,7.69 5.22,12.77 0,4.94 -1.56,8.94 -4.67,12 -2.84,2.83 -7.14,4.24 -12.87,4.24l-2.29 -0.04zm-59.4 -10.13c0,-7.86 1.47,-15.3 4.39,-22.27 2.91,-7.01 7.11,-13.24 12.55,-18.66 5.41,-5.38 11.61,-9.49 18.64,-12.39 7.03,-2.86 14.37,-4.3 22.04,-4.3 7.9,0 15.35,1.43 22.35,4.3 6.96,2.9 13.23,7.13 18.79,12.7 5.52,5.54 9.72,11.77 12.63,18.74 2.87,6.93 4.31,14.25 4.31,21.88 0,7.94 -1.44,15.41 -4.27,22.34 -2.84,6.97 -7,13.13 -12.48,18.51 -5.75,5.65 -12.14,9.95 -19.17,12.86 -7,2.9 -14.41,4.38 -22.16,4.38 -7.6,0 -14.94,-1.47 -21.93,-4.38 -7.03,-2.91 -13.27,-7.13 -18.75,-12.62 -5.52,-5.61 -9.72,-11.89 -12.63,-18.86 -2.87,-6.93 -4.31,-14.37 -4.31,-22.23z"/>
   </clipPath>
    <clipPath id="id1">
     <path d="M90.29 57.85c0,-9.99 -3.14,-18.47 -9.42,-25.4 -6.28,-6.93 -13.95,-10.38 -23.03,-10.38 -9,0 -16.68,3.45 -22.99,10.38 -6.31,6.93 -9.45,15.41 -9.45,25.4 0,9.99 3.14,18.47 9.45,25.4 6.31,6.93 13.99,10.38 22.99,10.38 9,0 16.67,-3.45 22.99,-10.38 6.32,-6.93 9.45,-15.41 9.45,-25.4zm14.51 33.91c-14.03,7.54 -30,11.82 -46.95,11.82 -16.86,0 -32.75,-4.23 -46.73,-11.7 -2.76,-3.76 -5.03,-7.77 -6.81,-12.04 -2.87,-6.93 -4.31,-14.37 -4.31,-22.23 0,-7.86 1.47,-15.3 4.39,-22.27 2.91,-7.01 7.11,-13.24 12.55,-18.66 5.41,-5.38 11.61,-9.49 18.64,-12.39 7.03,-2.86 14.37,-4.3 22.04,-4.3 7.9,0 15.35,1.43 22.35,4.3 6.96,2.9 13.23,7.13 18.79,12.7 5.52,5.54 9.72,11.77 12.63,18.74 2.87,6.93 4.31,14.25 4.31,21.88 0,7.94 -1.44,15.41 -4.27,22.34 -1.72,4.23 -3.93,8.16 -6.63,11.8zm-45.4 -24.01l0 -13.2c3.02,0 4.52,-1.14 4.52,-3.44 0,-2.1 -1.16,-3.15 -3.48,-3.15 -2.35,0 -3.53,1.45 -3.53,4.32l0 32.85 -14.93 0 0 -31.3c0,-3.24 0.33,-5.89 0.98,-7.97 0.64,-2.07 1.76,-4 3.33,-5.79 1.77,-1.99 3.98,-3.56 6.64,-4.7 2.65,-1.16 5.39,-1.73 8.21,-1.73 5.11,0 9.41,1.72 12.88,5.15 3.48,3.43 5.22,7.69 5.22,12.77 0,4.94 -1.56,8.94 -4.67,12 -2.84,2.83 -7.14,4.24 -12.87,4.24l-2.29 -0.04z"/>
    </clipPath>
    <clipPath id="id2">
     <path d="M90.29 57.85c0,-9.99 -3.14,-18.47 -9.42,-25.4 -6.28,-6.93 -13.95,-10.38 -23.03,-10.38 -9,0 -16.68,3.45 -22.99,10.38 -6.31,6.93 -9.45,15.41 -9.45,25.4 0,9.99 3.14,18.47 9.45,25.4 6.31,6.93 13.99,10.38 22.99,10.38 9,0 16.67,-3.45 22.99,-10.38 6.32,-6.93 9.45,-15.41 9.45,-25.4zm-30.89 9.9l0 -13.2c3.02,0 4.52,-1.14 4.52,-3.44 0,-2.1 -1.16,-3.15 -3.48,-3.15 -2.35,0 -3.53,1.45 -3.53,4.32l0 32.85 -14.93 0 0 -31.3c0,-3.24 0.33,-5.89 0.98,-7.97 0.64,-2.07 1.76,-4 3.33,-5.79 1.77,-1.99 3.98,-3.56 6.64,-4.7 2.65,-1.16 5.39,-1.73 8.21,-1.73 5.11,0 9.41,1.72 12.88,5.15 3.48,3.43 5.22,7.69 5.22,12.77 0,4.94 -1.56,8.94 -4.67,12 -2.84,2.83 -7.14,4.24 -12.87,4.24l-2.29 -0.04zm-59.4 -10.13c0,-7.86 1.47,-15.3 4.39,-22.27 2.91,-7.01 7.11,-13.24 12.55,-18.66 5.41,-5.38 11.61,-9.49 18.64,-12.39 7.03,-2.86 14.37,-4.3 22.04,-4.3 7.9,0 15.35,1.43 22.35,4.3 6.96,2.9 13.23,7.13 18.79,12.7 5.52,5.54 9.72,11.77 12.63,18.74 2.87,6.93 4.31,14.25 4.31,21.88 0,7.94 -1.44,15.41 -4.27,22.34 -2.84,6.97 -7,13.13 -12.48,18.51 -5.75,5.65 -12.14,9.95 -19.17,12.86 -7,2.9 -14.41,4.38 -22.16,4.38 -7.6,0 -14.94,-1.47 -21.93,-4.38 -7.03,-2.91 -13.27,-7.13 -18.75,-12.62 -5.52,-5.61 -9.72,-11.89 -12.63,-18.86 -2.87,-6.93 -4.31,-14.37 -4.31,-22.23z"/>
    </clipPath>
  <radialGradient id="id3" gradientUnits="userSpaceOnUse" gradientTransform="matrix(0.0779538 1.15357 -1.12643 0.0798322 63 -59)" cx="57.85" cy="8.29" r="82.87" fx="57.85" fy="8.29">
   <stop offset="0" style="stop-opacity:1; stop-color:red"/>
   <stop offset="1" style="stop-opacity:1; stop-color:#CF0000"/>
  </radialGradient>
  <radialGradient id="id4" gradientUnits="userSpaceOnUse" gradientTransform="matrix(0.0798324 1.15358 -1.15357 0.0798325 95 -91)" cx="88.38" cy="11.76" r="80.33" fx="88.38" fy="11.76">
   <stop offset="0" style="stop-opacity:1; stop-color:red"/>
   <stop offset="1" style="stop-opacity:1; stop-color:#BA0000"/>
  </radialGradient>
 </defs>
 <g id="图层_x0020_1">
  <metadata id="CorelCorpID_0Corel-Layer"/>
  <path class="fil0" d="M90.29 57.85c0,-9.99 -3.14,-18.47 -9.42,-25.4 -6.28,-6.93 -13.95,-10.38 -23.03,-10.38 -9,0 -16.68,3.45 -22.99,10.38 -6.31,6.93 -9.45,15.41 -9.45,25.4 0,9.99 3.14,18.47 9.45,25.4 6.31,6.93 13.99,10.38 22.99,10.38 9,0 16.67,-3.45 22.99,-10.38 6.32,-6.93 9.45,-15.41 9.45,-25.4zm-30.89 9.9l0 -13.2c3.02,0 4.52,-1.14 4.52,-3.44 0,-2.1 -1.16,-3.15 -3.48,-3.15 -2.35,0 -3.53,1.45 -3.53,4.32l0 32.85 -14.93 0 0 -31.3c0,-3.24 0.33,-5.89 0.98,-7.97 0.64,-2.07 1.76,-4 3.33,-5.79 1.77,-1.99 3.98,-3.56 6.64,-4.7 2.65,-1.16 5.39,-1.73 8.21,-1.73 5.11,0 9.41,1.72 12.88,5.15 3.48,3.43 5.22,7.69 5.22,12.77 0,4.94 -1.56,8.94 -4.67,12 -2.84,2.83 -7.14,4.24 -12.87,4.24l-2.29 -0.04zm-59.4 -10.13c0,-7.86 1.47,-15.3 4.39,-22.27 2.91,-7.01 7.11,-13.24 12.55,-18.66 5.41,-5.38 11.61,-9.49 18.64,-12.39 7.03,-2.86 14.37,-4.3 22.04,-4.3 7.9,0 15.35,1.43 22.35,4.3 6.96,2.9 13.23,7.13 18.79,12.7 5.52,5.54 9.72,11.77 12.63,18.74 2.87,6.93 4.31,14.25 4.31,21.88 0,7.94 -1.44,15.41 -4.27,22.34 -2.84,6.97 -7,13.13 -12.48,18.51 -5.75,5.65 -12.14,9.95 -19.17,12.86 -7,2.9 -14.41,4.38 -22.16,4.38 -7.6,0 -14.94,-1.47 -21.93,-4.38 -7.03,-2.91 -13.27,-7.13 -18.75,-12.62 -5.52,-5.61 -9.72,-11.89 -12.63,-18.86 -2.87,-6.93 -4.31,-14.37 -4.31,-22.23z"/>
  <g style="clip-path:url(#id0)">
   <g id="_2675074894048">
    <path id="_1" class="fil1" d="M57.85 -103.59c55.86,0 101.15,46.38 101.15,103.59 0,57.21 -45.29,103.59 -101.15,103.59 -55.86,0 -101.15,-46.38 -101.15,-103.59 0,-57.21 45.29,-103.59 101.15,-103.59z"/>
   </g>
   <g style="clip-path:url(#id1)">
    <g>
     <ellipse class="fil2" cx="88.38" cy="3.47" rx="101.15" ry="103.59"/>
    </g>
   </g>
   <g style="clip-path:url(#id2)">
    <path class="fil3" d="M57.85 -103.59c55.86,0 101.15,46.38 101.15,103.59 0,57.21 -45.29,103.59 -101.15,103.59 -55.86,0 -101.15,-46.38 -101.15,-103.59 0,-57.21 45.29,-103.59 101.15,-103.59z"/>
   </g>
  </g>
  <path class="fil4" d="M90.29 57.85c0,-9.99 -3.14,-18.47 -9.42,-25.4 -6.28,-6.93 -13.95,-10.38 -23.03,-10.38 -9,0 -16.68,3.45 -22.99,10.38 -6.31,6.93 -9.45,15.41 -9.45,25.4 0,9.99 3.14,18.47 9.45,25.4 6.31,6.93 13.99,10.38 22.99,10.38 9,0 16.67,-3.45 22.99,-10.38 6.32,-6.93 9.45,-15.41 9.45,-25.4zm-30.89 9.9l0 -13.2c3.02,0 4.52,-1.14 4.52,-3.44 0,-2.1 -1.16,-3.15 -3.48,-3.15 -2.35,0 -3.53,1.45 -3.53,4.32l0 32.85 -14.93 0 0 -31.3c0,-3.24 0.33,-5.89 0.98,-7.97 0.64,-2.07 1.76,-4 3.33,-5.79 1.77,-1.99 3.98,-3.56 6.64,-4.7 2.65,-1.16 5.39,-1.73 8.21,-1.73 5.11,0 9.41,1.72 12.88,5.15 3.48,3.43 5.22,7.69 5.22,12.77 0,4.94 -1.56,8.94 -4.67,12 -2.84,2.83 -7.14,4.24 -12.87,4.24l-2.29 -0.04zm-59.4 -10.13c0,-7.86 1.47,-15.3 4.39,-22.27 2.91,-7.01 7.11,-13.24 12.55,-18.66 5.41,-5.38 11.61,-9.49 18.64,-12.39 7.03,-2.86 14.37,-4.3 22.04,-4.3 7.9,0 15.35,1.43 22.35,4.3 6.96,2.9 13.23,7.13 18.79,12.7 5.52,5.54 9.72,11.77 12.63,18.74 2.87,6.93 4.31,14.25 4.31,21.88 0,7.94 -1.44,15.41 -4.27,22.34 -2.84,6.97 -7,13.13 -12.48,18.51 -5.75,5.65 -12.14,9.95 -19.17,12.86 -7,2.9 -14.41,4.38 -22.16,4.38 -7.6,0 -14.94,-1.47 -21.93,-4.38 -7.03,-2.91 -13.27,-7.13 -18.75,-12.62 -5.52,-5.61 -9.72,-11.89 -12.63,-18.86 -2.87,-6.93 -4.31,-14.37 -4.31,-22.23z"/>
 </g>
</svg>
